<svg id="Text" xmlns="http://www.w3.org/2000/svg" xmlns:xlink="http://www.w3.org/1999/xlink" viewBox="0 0 140 118.92"><defs><style>.cls-1{fill:url(#linear-gradient);}</style><linearGradient id="linear-gradient" x1="415.08" y1="577.72" x2="615.22" y2="524.09" gradientUnits="userSpaceOnUse"><stop offset="0" stop-color="#f7a401"/><stop offset="1" stop-color="#febf04"/></linearGradient></defs><title>icon</title><path class="cls-1" d="M544.46,499.35c2.76,9.1,2.21,19.76,2.18,28.85,0,6.44-10,6.44-10,0,0-8.81,1.87-23.68-4.21-31.71a222.57,222.57,0,0,0-62.74-3.65,184.05,184.05,0,0,0-19,2.44c5.08,9.45,5.73,20.32,5.73,31.48,0,6.45-10,6.43-10,0,0-10.22-.09-20.61-5.86-29.05A59.06,59.06,0,0,0,424,505.24V611H564V506.53A100,100,0,0,0,544.46,499.35Zm-38.78,74.94a2.28,2.28,0,0,1-1.6.57c-3.13,0-6.26-.2-9.39-.3-1.47,0-2.93.06-4.41.06a2.59,2.59,0,0,1-.87-.16,2.53,2.53,0,0,1-2-3.12l.24-1a2.73,2.73,0,0,1,.34-.79c.93-2.77,2.24-5.47,3.08-8.28-6.75-4.85-4.84-18.27,5.71-18.27s12.44,13.36,5.76,18.24c.76,3.12,2.55,6.07,4,8.86a2.49,2.49,0,0,1,.25.92,2.94,2.94,0,0,1,.11,1A2.46,2.46,0,0,1,505.68,574.29Z" transform="translate(-424 -492.08)"/></svg>