<svg id="Text" xmlns="http://www.w3.org/2000/svg" xmlns:xlink="http://www.w3.org/1999/xlink" viewBox="0 0 136 162"><defs><style>.cls-1{fill:url(#linear-gradient);}.cls-2{fill:url(#linear-gradient-2);}</style><linearGradient id="linear-gradient" x1="424.51" y1="552.77" x2="586.69" y2="509.31" gradientUnits="userSpaceOnUse"><stop offset="0" stop-color="#370f39"/><stop offset="1" stop-color="#691c2b"/></linearGradient><linearGradient id="linear-gradient-2" x1="429.41" y1="571.04" x2="591.58" y2="527.59" xlink:href="#linear-gradient"/></defs><title>icon-2</title><path class="cls-1" d="M493.74,578.81c-.26-14.44-2.22-30.58,6-43.3,3-4.63,6.94-8.58,9.89-13.24,3.86-6.11,4.82-13.22,5.45-20.3,1.27-14.3.27-28.64-.16-43H452a12,12,0,0,0-12,12V609a12,12,0,0,0,12,12h41.91C494,606.94,494,592.87,493.74,578.81Z" transform="translate(-440 -459)"/><path class="cls-2" d="M564,459H524.94c.43,14.33,1.43,28.67.16,43-.64,7.16-1.47,14.56-4.52,21.14-2.41,5.18-6.15,9.38-9.61,13.86-3.8,4.92-6.47,10-7.09,16.27-.84,8.44-.29,17.1-.14,25.57.26,14.06.21,28.13.17,42.19H564a12,12,0,0,0,12-12V471A12,12,0,0,0,564,459ZM553.24,560.72c-12.89,0-12.87-20,0-20S566.11,560.72,553.24,560.72Z" transform="translate(-440 -459)"/></svg>