<svg id="Text" xmlns="http://www.w3.org/2000/svg" xmlns:xlink="http://www.w3.org/1999/xlink" viewBox="0 0 1026.13 184.28"><defs><style>.cls-1{fill:url(#linear-gradient);}.cls-2{fill:url(#linear-gradient-6);}.cls-3{fill:url(#linear-gradient-11);}</style><linearGradient id="linear-gradient" x1="587.76" y1="618.78" x2="1007.54" y2="506.3" gradientUnits="userSpaceOnUse"><stop offset="0" stop-color="#370f39"/><stop offset="1" stop-color="#691c2b"/></linearGradient><linearGradient id="linear-gradient-6" x1="1030.71" y1="621.82" x2="1450.04" y2="509.47" gradientUnits="userSpaceOnUse"><stop offset="0" stop-color="#f7a401"/><stop offset="1" stop-color="#febf04"/></linearGradient><linearGradient id="linear-gradient-11" x1="415.08" y1="577.72" x2="615.22" y2="524.09" xlink:href="#linear-gradient-6"/></defs><title>logo-3-v2</title><path d="M606.09,607.79a30.39,30.39,0,0,1-12-14Q590,584.6,590,571.71V549.64q0-13.1,4-22.37a30.35,30.35,0,0,1,11.67-14.11q7.67-4.83,18.41-4.83a45.31,45.31,0,0,1,20.36,4.34q8.73,4.35,14,14.21l-2,19.53a27.07,27.07,0,0,0-3.07-12.59,24.77,24.77,0,0,0-8.94-9.67,25.15,25.15,0,0,0-13.77-3.71q-12.69,0-19.63,7.66T604,549.73v22Q604,585.38,611,593t19.63,7.57a24.49,24.49,0,0,0,13.67-3.81,25.59,25.59,0,0,0,9-9.92,27.59,27.59,0,0,0,3.12-12.74l1.37,21.19a24.55,24.55,0,0,1-12.11,13.33q-8.31,4-20.61,4.06Q614,612.63,606.09,607.79Zm9.28,44.58-9-4.25a32.9,32.9,0,0,1-14-12l9.57-8.59a32.26,32.26,0,0,0,11,9.22,29.5,29.5,0,0,0,13.58,3.28q14.16,0,22-7.86t7.81-22.12V509.79h14.06v98.34q0,14-5.12,23.93a34.76,34.76,0,0,1-14.9,15.14q-9.76,5.17-23.53,5.17Z" transform="translate(-424 -469.17)"/><path d="M714.78,571.41q0,13.38,6.93,20.76t19.63,7.37q12.6,0,19.48-6.74t6.89-19L769.08,595q-3.72,7.51-12.26,12.6t-21,5.08q-16.8,0-25.93-10.8t-9.13-30.42V509.79h14.06Zm52.93-61.62h14V611.16h-14Z" transform="translate(-424 -469.17)"/><path d="M814.88,469.17h14.06v14.06H814.88Zm0,40.62h14.06V611.16H814.88Z" transform="translate(-424 -469.17)"/><path d="M876.21,584.5q0,6.45,3.17,10t8.84,3.56h9.37v13.09H885.87q-11.32,0-17.53-7t-6.2-19.83V469.17h14.07Z" transform="translate(-424 -469.17)"/><path d="M933.24,607.79a30.39,30.39,0,0,1-12-14q-4.11-9.18-4.11-22.07V549.64q0-13.1,4-22.37a30.35,30.35,0,0,1,11.67-14.11q7.66-4.83,18.41-4.83a45.31,45.31,0,0,1,20.36,4.34q8.73,4.35,14,14.21l-2.05,19.53a27.08,27.08,0,0,0-3.08-12.59,24.74,24.74,0,0,0-8.93-9.67,25.15,25.15,0,0,0-13.77-3.71q-12.71,0-19.63,7.66t-6.93,21.63v22q0,13.66,6.93,21.24t19.63,7.57a24.51,24.51,0,0,0,13.67-3.81,25.49,25.49,0,0,0,9-9.92,27.48,27.48,0,0,0,3.13-12.74l1.37,21.19a24.55,24.55,0,0,1-12.11,13.33q-8.31,4-20.61,4.06Q941.14,612.63,933.24,607.79Zm50.29-138.62h14.06v142H983.53Z" transform="translate(-424 -469.17)"/><path class="cls-1" d="M606.09,607.79a30.39,30.39,0,0,1-12-14Q590,584.6,590,571.71V549.64q0-13.1,4-22.37a30.35,30.35,0,0,1,11.67-14.11q7.67-4.83,18.41-4.83a45.31,45.31,0,0,1,20.36,4.34q8.73,4.35,14,14.21l-2,19.53a27.07,27.07,0,0,0-3.07-12.59,24.77,24.77,0,0,0-8.94-9.67,25.15,25.15,0,0,0-13.77-3.71q-12.69,0-19.63,7.66T604,549.73v22Q604,585.38,611,593t19.63,7.57a24.49,24.49,0,0,0,13.67-3.81,25.59,25.59,0,0,0,9-9.92,27.59,27.59,0,0,0,3.12-12.74l1.37,21.19a24.55,24.55,0,0,1-12.11,13.33q-8.31,4-20.61,4.06Q614,612.63,606.09,607.79Zm9.28,44.58-9-4.25a32.9,32.9,0,0,1-14-12l9.57-8.59a32.26,32.26,0,0,0,11,9.22,29.5,29.5,0,0,0,13.58,3.28q14.16,0,22-7.86t7.81-22.12V509.79h14.06v98.34q0,14-5.12,23.93a34.76,34.76,0,0,1-14.9,15.14q-9.76,5.17-23.53,5.17Z" transform="translate(-424 -469.17)"/><path class="cls-1" d="M714.78,571.41q0,13.38,6.93,20.76t19.63,7.37q12.6,0,19.48-6.74t6.89-19L769.08,595q-3.72,7.51-12.26,12.6t-21,5.08q-16.8,0-25.93-10.8t-9.13-30.42V509.79h14.06Zm52.93-61.62h14V611.16h-14Z" transform="translate(-424 -469.17)"/><path class="cls-1" d="M814.88,469.17h14.06v14.06H814.88Zm0,40.62h14.06V611.16H814.88Z" transform="translate(-424 -469.17)"/><path class="cls-1" d="M876.21,584.5q0,6.45,3.17,10t8.84,3.56h9.37v13.09H885.87q-11.32,0-17.53-7t-6.2-19.83V469.17h14.07Z" transform="translate(-424 -469.17)"/><path class="cls-1" d="M933.24,607.79a30.39,30.39,0,0,1-12-14q-4.11-9.18-4.11-22.07V549.64q0-13.1,4-22.37a30.35,30.35,0,0,1,11.67-14.11q7.66-4.83,18.41-4.83a45.31,45.31,0,0,1,20.36,4.34q8.73,4.35,14,14.21l-2.05,19.53a27.08,27.08,0,0,0-3.08-12.59,24.74,24.74,0,0,0-8.93-9.67,25.15,25.15,0,0,0-13.77-3.71q-12.71,0-19.63,7.66t-6.93,21.63v22q0,13.66,6.93,21.24t19.63,7.57a24.51,24.51,0,0,0,13.67-3.81,25.49,25.49,0,0,0,9-9.92,27.48,27.48,0,0,0,3.13-12.74l1.37,21.19a24.55,24.55,0,0,1-12.11,13.33q-8.31,4-20.61,4.06Q941.14,612.63,933.24,607.79Zm50.29-138.62h14.06v142H983.53Z" transform="translate(-424 -469.17)"/><path d="M1048.17,612.63l-9.76-4.89a31.66,31.66,0,0,1-14.6-14.65q-4.83-9.76-4.84-24.51v-16.7q0-14.55,4.89-24.22a31.8,31.8,0,0,1,14.6-14.5q9.72-4.83,24.36-4.83a59.42,59.42,0,0,1,15.14,1.8,40.74,40.74,0,0,1,12.21,5.38,36.63,36.63,0,0,1,9.37,9l-10.45,9.28a34.12,34.12,0,0,0-11.67-9.33,33,33,0,0,0-14.3-3.08q-15.15,0-22.61,7.57t-7.47,22.9v16.7q0,15.52,7.52,23.24t22.56,7.72a37.7,37.7,0,0,0,15.08-2.93,35.91,35.91,0,0,0,12.26-8.89l9.08,9a36.68,36.68,0,0,1-9.37,8.88,40.32,40.32,0,0,1-12.21,5.28,60.86,60.86,0,0,1-15.14,1.76Z" transform="translate(-424 -469.17)"/><path d="M1121.51,509.79h14.07V611.16h-14.07Zm51.81,13.28a33.38,33.38,0,0,0-11-1.66q-12.69,0-19.72,6.79t-7,18.8l-2-19.53a39.26,39.26,0,0,1,14.6-14.11,39.87,39.87,0,0,1,19.77-5,37.29,37.29,0,0,1,12.55,2,28.24,28.24,0,0,1,9.81,5.91L1181.18,528A19.91,19.91,0,0,0,1173.32,523.07Z" transform="translate(-424 -469.17)"/><path d="M1196.12,509.79h14.46l33.3,94.05-7.33,15.62Zm89.75,0-43.16,125.1a29.91,29.91,0,0,1-6.16,11,21.49,21.49,0,0,1-9.37,5.81,46,46,0,0,1-13.67,1.76h-4V640.16h4c5.2,0,9.36-1.18,12.45-3.56s5.74-6.46,8-12.26l37.5-114.55Z" transform="translate(-424 -469.17)"/><path d="M1303.45,509.79h14.06V652.37h-14.06Zm24.8,98.78a24.55,24.55,0,0,1-12.11-13.33l1.37-21.19a27.59,27.59,0,0,0,3.12,12.74,25.59,25.59,0,0,0,9,9.92,24.51,24.51,0,0,0,13.67,3.81q12.69,0,19.63-7.57t6.93-21.24v-22q0-14-6.93-21.63t-19.63-7.66a24.73,24.73,0,0,0-13.67,3.76,25.44,25.44,0,0,0-9,9.71,26.61,26.61,0,0,0-3.12,12.5l-2-19.53q5.26-9.86,14-14.21a45.31,45.31,0,0,1,20.36-4.34q10.76,0,18.41,4.83a30.35,30.35,0,0,1,11.67,14.11q4,9.29,4,22.37v22.07q0,12.88-4.11,22.07a30.39,30.39,0,0,1-12,14q-7.9,4.83-18.94,4.84Q1336.55,612.63,1328.25,608.57Z" transform="translate(-424 -469.17)"/><path d="M1404.42,509.79h45.71V521.9h-45.71Zm16.17,95.07q-5.71-6.78-5.72-20.07V480.3h14.07V585q0,6.54,2.93,10.06t8.69,3.51h9.57v13.09H1438.6Q1426.3,611.65,1420.59,604.86Z" transform="translate(-424 -469.17)"/><path class="cls-2" d="M1048.17,612.63l-9.76-4.89a31.66,31.66,0,0,1-14.6-14.65q-4.83-9.76-4.84-24.51v-16.7q0-14.55,4.89-24.22a31.8,31.8,0,0,1,14.6-14.5q9.72-4.83,24.36-4.83a59.42,59.42,0,0,1,15.14,1.8,40.74,40.74,0,0,1,12.21,5.38,36.63,36.63,0,0,1,9.37,9l-10.45,9.28a34.12,34.12,0,0,0-11.67-9.33,33,33,0,0,0-14.3-3.08q-15.15,0-22.61,7.57t-7.47,22.9v16.7q0,15.52,7.52,23.24t22.56,7.72a37.7,37.7,0,0,0,15.08-2.93,35.91,35.91,0,0,0,12.26-8.89l9.08,9a36.68,36.68,0,0,1-9.37,8.88,40.32,40.32,0,0,1-12.21,5.28,60.86,60.86,0,0,1-15.14,1.76Z" transform="translate(-424 -469.17)"/><path class="cls-2" d="M1121.51,509.79h14.07V611.16h-14.07Zm51.81,13.28a33.38,33.38,0,0,0-11-1.66q-12.69,0-19.72,6.79t-7,18.8l-2-19.53a39.26,39.26,0,0,1,14.6-14.11,39.87,39.87,0,0,1,19.77-5,37.29,37.29,0,0,1,12.55,2,28.24,28.24,0,0,1,9.81,5.91L1181.18,528A19.91,19.91,0,0,0,1173.32,523.07Z" transform="translate(-424 -469.17)"/><path class="cls-2" d="M1196.12,509.79h14.46l33.3,94.05-7.33,15.62Zm89.75,0-43.16,125.1a29.91,29.91,0,0,1-6.16,11,21.49,21.49,0,0,1-9.37,5.81,46,46,0,0,1-13.67,1.76h-4V640.16h4c5.2,0,9.36-1.18,12.45-3.56s5.74-6.46,8-12.26l37.5-114.55Z" transform="translate(-424 -469.17)"/><path class="cls-2" d="M1303.45,509.79h14.06V652.37h-14.06Zm24.8,98.78a24.55,24.55,0,0,1-12.11-13.33l1.37-21.19a27.59,27.59,0,0,0,3.12,12.74,25.59,25.59,0,0,0,9,9.92,24.51,24.51,0,0,0,13.67,3.81q12.69,0,19.63-7.57t6.93-21.24v-22q0-14-6.93-21.63t-19.63-7.66a24.73,24.73,0,0,0-13.67,3.76,25.44,25.44,0,0,0-9,9.71,26.61,26.61,0,0,0-3.12,12.5l-2-19.53q5.26-9.86,14-14.21a45.31,45.31,0,0,1,20.36-4.34q10.76,0,18.41,4.83a30.35,30.35,0,0,1,11.67,14.11q4,9.29,4,22.37v22.07q0,12.88-4.11,22.07a30.39,30.39,0,0,1-12,14q-7.9,4.83-18.94,4.84Q1336.55,612.63,1328.25,608.57Z" transform="translate(-424 -469.17)"/><path class="cls-2" d="M1404.42,509.79h45.71V521.9h-45.71Zm16.17,95.07q-5.71-6.78-5.72-20.07V480.3h14.07V585q0,6.54,2.93,10.06t8.69,3.51h9.57v13.09H1438.6Q1426.3,611.65,1420.59,604.86Z" transform="translate(-424 -469.17)"/><path class="cls-3" d="M544.46,499.35c2.76,9.1,2.21,19.76,2.18,28.85,0,6.44-10,6.44-10,0,0-8.81,1.87-23.68-4.21-31.71a222.57,222.57,0,0,0-62.74-3.65,184.05,184.05,0,0,0-19,2.44c5.08,9.45,5.73,20.32,5.73,31.48,0,6.45-10,6.43-10,0,0-10.22-.09-20.61-5.86-29.05A59.06,59.06,0,0,0,424,505.24V611H564V506.53A100,100,0,0,0,544.46,499.35Zm-38.78,74.94a2.28,2.28,0,0,1-1.6.57c-3.13,0-6.26-.2-9.39-.3-1.47,0-2.93.06-4.41.06a2.59,2.59,0,0,1-.87-.16,2.53,2.53,0,0,1-2-3.12l.24-1a2.73,2.73,0,0,1,.34-.79c.93-2.77,2.24-5.47,3.08-8.28-6.75-4.85-4.84-18.27,5.71-18.27s12.44,13.36,5.76,18.24c.76,3.12,2.55,6.07,4,8.86a2.49,2.49,0,0,1,.25.92,2.94,2.94,0,0,1,.11,1A2.46,2.46,0,0,1,505.68,574.29Z" transform="translate(-424 -469.17)"/></svg>