<svg id="Text" xmlns="http://www.w3.org/2000/svg" xmlns:xlink="http://www.w3.org/1999/xlink" viewBox="0 0 1033.09 204.45"><defs><style>.cls-1{fill:url(#linear-gradient);}.cls-2{fill:url(#linear-gradient-11);}.cls-3{fill:url(#linear-gradient-12);}</style><linearGradient id="linear-gradient" x1="620.83" y1="688.74" x2="1458.23" y2="464.36" gradientUnits="userSpaceOnUse"><stop offset="0" stop-color="#370f39"/><stop offset="1" stop-color="#691c2b"/></linearGradient><linearGradient id="linear-gradient-11" x1="424.51" y1="552.77" x2="586.69" y2="509.31" xlink:href="#linear-gradient"/><linearGradient id="linear-gradient-12" x1="429.41" y1="571.04" x2="591.58" y2="527.59" xlink:href="#linear-gradient"/></defs><title>logo-2</title><path d="M623.09,617.79a30.39,30.39,0,0,1-12-14Q607,594.6,607,581.71V559.64q0-13.1,4-22.37a30.35,30.35,0,0,1,11.67-14.11q7.67-4.83,18.41-4.83a45.31,45.31,0,0,1,20.36,4.34q8.73,4.35,14,14.21l-2,19.53a27.07,27.07,0,0,0-3.07-12.59,24.77,24.77,0,0,0-8.94-9.67,25.15,25.15,0,0,0-13.77-3.71q-12.69,0-19.63,7.66T621,559.73v22Q621,595.38,628,603t19.63,7.57a24.49,24.49,0,0,0,13.67-3.81,25.59,25.59,0,0,0,9-9.92,27.59,27.59,0,0,0,3.12-12.74l1.37,21.19a24.55,24.55,0,0,1-12.11,13.33q-8.31,4-20.61,4.06Q631,622.63,623.09,617.79Zm9.28,44.58-9-4.25a32.9,32.9,0,0,1-14-12l9.57-8.59a32.26,32.26,0,0,0,11,9.22,29.5,29.5,0,0,0,13.58,3.28q14.16,0,22-7.86t7.81-22.12V519.79h14.06v98.34q0,14-5.12,23.93a34.76,34.76,0,0,1-14.9,15.14q-9.76,5.17-23.53,5.17Z" transform="translate(-440 -459)"/><path d="M731.78,581.41q0,13.38,6.93,20.76t19.63,7.37q12.6,0,19.48-6.74t6.89-19L786.08,605q-3.72,7.51-12.26,12.6t-21,5.08q-16.8,0-25.93-10.8t-9.13-30.42V519.79h14.06Zm52.93-61.62h14V621.16h-14Z" transform="translate(-440 -459)"/><path d="M831.88,479.17h14.06v14.06H831.88Zm0,40.62h14.06V621.16H831.88Z" transform="translate(-440 -459)"/><path d="M893.21,594.5q0,6.45,3.17,10t8.84,3.56h9.37v13.09H902.87q-11.32,0-17.53-7t-6.2-19.83V479.17h14.07Z" transform="translate(-440 -459)"/><path d="M950.24,617.79a30.39,30.39,0,0,1-12-14q-4.11-9.18-4.11-22.07V559.64q0-13.1,4-22.37a30.35,30.35,0,0,1,11.67-14.11q7.66-4.83,18.41-4.83a45.31,45.31,0,0,1,20.36,4.34q8.73,4.35,14,14.21l-2.05,19.53a27.08,27.08,0,0,0-3.08-12.59,24.74,24.74,0,0,0-8.93-9.67,25.15,25.15,0,0,0-13.77-3.71q-12.69,0-19.63,7.66t-6.93,21.63v22q0,13.66,6.93,21.24t19.63,7.57a24.51,24.51,0,0,0,13.67-3.81,25.49,25.49,0,0,0,9-9.92,27.48,27.48,0,0,0,3.13-12.74l1.37,21.19a24.55,24.55,0,0,1-12.11,13.33q-8.31,4-20.61,4.06Q958.14,622.63,950.24,617.79Zm50.29-138.62h14.06v142h-14.06Z" transform="translate(-440 -459)"/><path d="M1071.13,622.63l-9.76-4.89a31.66,31.66,0,0,1-14.6-14.65q-4.83-9.76-4.83-24.51v-16.7q0-14.55,4.88-24.22a31.8,31.8,0,0,1,14.6-14.5q9.72-4.83,24.36-4.83a59.42,59.42,0,0,1,15.14,1.8,40.74,40.74,0,0,1,12.21,5.38,36.63,36.63,0,0,1,9.37,9l-10.45,9.28a34.12,34.12,0,0,0-11.67-9.33,33,33,0,0,0-14.3-3.08q-15.15,0-22.61,7.57t-7.47,22.9v16.7q0,15.52,7.52,23.24t22.56,7.72a37.7,37.7,0,0,0,15.08-2.93,35.91,35.91,0,0,0,12.26-8.89l9.08,9a36.68,36.68,0,0,1-9.37,8.88,40.32,40.32,0,0,1-12.21,5.28,60.86,60.86,0,0,1-15.14,1.76Z" transform="translate(-440 -459)"/><path d="M1144.47,519.79h14.07V621.16h-14.07Zm51.81,13.28a33.38,33.38,0,0,0-11-1.66q-12.69,0-19.72,6.79t-7,18.8l-2-19.53a39.26,39.26,0,0,1,14.6-14.11,39.87,39.87,0,0,1,19.77-5,37.29,37.29,0,0,1,12.55,2,28.15,28.15,0,0,1,9.81,5.91L1204.14,538A19.91,19.91,0,0,0,1196.28,533.07Z" transform="translate(-440 -459)"/><path d="M1219.08,519.79h14.46l33.3,94.05-7.33,15.62Zm89.75,0-43.16,125.1a29.91,29.91,0,0,1-6.16,11,21.49,21.49,0,0,1-9.37,5.81,46,46,0,0,1-13.67,1.76h-4V650.16h4c5.2,0,9.36-1.18,12.45-3.56s5.74-6.46,8-12.26l37.5-114.55Z" transform="translate(-440 -459)"/><path d="M1326.41,519.79h14.06V662.37h-14.06Zm24.8,98.78a24.55,24.55,0,0,1-12.11-13.33l1.37-21.19a27.48,27.48,0,0,0,3.13,12.74,25.49,25.49,0,0,0,9,9.92,24.51,24.51,0,0,0,13.67,3.81q12.69,0,19.63-7.57t6.93-21.24v-22q0-14-6.93-21.63t-19.63-7.66a24.73,24.73,0,0,0-13.67,3.76,25.34,25.34,0,0,0-9,9.71,26.51,26.51,0,0,0-3.13,12.5l-2-19.53q5.28-9.86,14-14.21a45.31,45.31,0,0,1,20.36-4.34q10.76,0,18.41,4.83a30.35,30.35,0,0,1,11.67,14.11q4,9.29,4,22.37v22.07q0,12.88-4.1,22.07a30.47,30.47,0,0,1-12,14q-7.9,4.83-18.94,4.84Q1359.52,622.63,1351.21,618.57Z" transform="translate(-440 -459)"/><path d="M1427.38,519.79h45.71V531.9h-45.71Zm16.17,95.07q-5.71-6.78-5.72-20.07V490.3h14.07V595q0,6.54,2.93,10.06t8.69,3.51h9.57v13.09h-11.53Q1449.26,621.65,1443.55,614.86Z" transform="translate(-440 -459)"/><path class="cls-1" d="M623.09,617.79a30.39,30.39,0,0,1-12-14Q607,594.6,607,581.71V559.64q0-13.1,4-22.37a30.35,30.35,0,0,1,11.67-14.11q7.67-4.83,18.41-4.83a45.31,45.31,0,0,1,20.36,4.34q8.73,4.35,14,14.21l-2,19.53a27.07,27.07,0,0,0-3.07-12.59,24.77,24.77,0,0,0-8.94-9.67,25.15,25.15,0,0,0-13.77-3.71q-12.69,0-19.63,7.66T621,559.73v22Q621,595.38,628,603t19.63,7.57a24.49,24.49,0,0,0,13.67-3.81,25.59,25.59,0,0,0,9-9.92,27.59,27.59,0,0,0,3.12-12.74l1.37,21.19a24.55,24.55,0,0,1-12.11,13.33q-8.31,4-20.61,4.06Q631,622.63,623.09,617.79Zm9.28,44.58-9-4.25a32.9,32.9,0,0,1-14-12l9.57-8.59a32.26,32.26,0,0,0,11,9.22,29.5,29.5,0,0,0,13.58,3.28q14.16,0,22-7.86t7.81-22.12V519.79h14.06v98.34q0,14-5.12,23.93a34.76,34.76,0,0,1-14.9,15.14q-9.76,5.17-23.53,5.17Z" transform="translate(-440 -459)"/><path class="cls-1" d="M731.78,581.41q0,13.38,6.93,20.76t19.63,7.37q12.6,0,19.48-6.74t6.89-19L786.08,605q-3.72,7.51-12.26,12.6t-21,5.08q-16.8,0-25.93-10.8t-9.13-30.42V519.79h14.06Zm52.93-61.62h14V621.16h-14Z" transform="translate(-440 -459)"/><path class="cls-1" d="M831.88,479.17h14.06v14.06H831.88Zm0,40.62h14.06V621.16H831.88Z" transform="translate(-440 -459)"/><path class="cls-1" d="M893.21,594.5q0,6.45,3.17,10t8.84,3.56h9.37v13.09H902.87q-11.32,0-17.53-7t-6.2-19.83V479.17h14.07Z" transform="translate(-440 -459)"/><path class="cls-1" d="M950.24,617.79a30.39,30.39,0,0,1-12-14q-4.11-9.18-4.11-22.07V559.64q0-13.1,4-22.37a30.35,30.35,0,0,1,11.67-14.11q7.66-4.83,18.41-4.83a45.31,45.31,0,0,1,20.36,4.34q8.73,4.35,14,14.21l-2.05,19.53a27.08,27.08,0,0,0-3.08-12.59,24.74,24.74,0,0,0-8.93-9.67,25.15,25.15,0,0,0-13.77-3.71q-12.69,0-19.63,7.66t-6.93,21.63v22q0,13.66,6.93,21.24t19.63,7.57a24.51,24.51,0,0,0,13.67-3.81,25.49,25.49,0,0,0,9-9.92,27.48,27.48,0,0,0,3.13-12.74l1.37,21.19a24.55,24.55,0,0,1-12.11,13.33q-8.31,4-20.61,4.06Q958.14,622.63,950.24,617.79Zm50.29-138.62h14.06v142h-14.06Z" transform="translate(-440 -459)"/><path class="cls-1" d="M1071.13,622.63l-9.76-4.89a31.66,31.66,0,0,1-14.6-14.65q-4.83-9.76-4.83-24.51v-16.7q0-14.55,4.88-24.22a31.8,31.8,0,0,1,14.6-14.5q9.72-4.83,24.36-4.83a59.42,59.42,0,0,1,15.14,1.8,40.74,40.74,0,0,1,12.21,5.38,36.63,36.63,0,0,1,9.37,9l-10.45,9.28a34.12,34.12,0,0,0-11.67-9.33,33,33,0,0,0-14.3-3.08q-15.15,0-22.61,7.57t-7.47,22.9v16.7q0,15.52,7.52,23.24t22.56,7.72a37.7,37.7,0,0,0,15.08-2.93,35.91,35.91,0,0,0,12.26-8.89l9.08,9a36.68,36.68,0,0,1-9.37,8.88,40.32,40.32,0,0,1-12.21,5.28,60.86,60.86,0,0,1-15.14,1.76Z" transform="translate(-440 -459)"/><path class="cls-1" d="M1144.47,519.79h14.07V621.16h-14.07Zm51.81,13.28a33.38,33.38,0,0,0-11-1.66q-12.69,0-19.72,6.79t-7,18.8l-2-19.53a39.26,39.26,0,0,1,14.6-14.11,39.87,39.87,0,0,1,19.77-5,37.29,37.29,0,0,1,12.55,2,28.15,28.15,0,0,1,9.81,5.91L1204.14,538A19.91,19.91,0,0,0,1196.28,533.07Z" transform="translate(-440 -459)"/><path class="cls-1" d="M1219.08,519.79h14.46l33.3,94.05-7.33,15.62Zm89.75,0-43.16,125.1a29.91,29.91,0,0,1-6.16,11,21.49,21.49,0,0,1-9.37,5.81,46,46,0,0,1-13.67,1.76h-4V650.16h4c5.2,0,9.36-1.18,12.45-3.56s5.74-6.46,8-12.26l37.5-114.55Z" transform="translate(-440 -459)"/><path class="cls-1" d="M1326.41,519.79h14.06V662.37h-14.06Zm24.8,98.78a24.55,24.55,0,0,1-12.11-13.33l1.37-21.19a27.48,27.48,0,0,0,3.13,12.74,25.49,25.49,0,0,0,9,9.92,24.51,24.51,0,0,0,13.67,3.81q12.69,0,19.63-7.57t6.93-21.24v-22q0-14-6.93-21.63t-19.63-7.66a24.73,24.73,0,0,0-13.67,3.76,25.34,25.34,0,0,0-9,9.71,26.51,26.51,0,0,0-3.13,12.5l-2-19.53q5.28-9.86,14-14.21a45.31,45.31,0,0,1,20.36-4.34q10.76,0,18.41,4.83a30.35,30.35,0,0,1,11.67,14.11q4,9.29,4,22.37v22.07q0,12.88-4.1,22.07a30.47,30.47,0,0,1-12,14q-7.9,4.83-18.94,4.84Q1359.52,622.63,1351.21,618.57Z" transform="translate(-440 -459)"/><path class="cls-1" d="M1427.38,519.79h45.71V531.9h-45.71Zm16.17,95.07q-5.71-6.78-5.72-20.07V490.3h14.07V595q0,6.54,2.93,10.06t8.69,3.51h9.57v13.09h-11.53Q1449.26,621.65,1443.55,614.86Z" transform="translate(-440 -459)"/><path class="cls-2" d="M493.74,578.81c-.26-14.44-2.22-30.58,6-43.3,3-4.63,6.94-8.58,9.89-13.24,3.86-6.11,4.82-13.22,5.45-20.3,1.27-14.3.27-28.64-.16-43H452a12,12,0,0,0-12,12V609a12,12,0,0,0,12,12h41.91C494,606.94,494,592.87,493.74,578.81Z" transform="translate(-440 -459)"/><path class="cls-3" d="M564,459H524.94c.43,14.33,1.43,28.67.16,43-.64,7.16-1.47,14.56-4.52,21.14-2.41,5.18-6.15,9.38-9.61,13.86-3.8,4.92-6.47,10-7.09,16.27-.84,8.44-.29,17.1-.14,25.57.26,14.06.21,28.13.17,42.19H564a12,12,0,0,0,12-12V471A12,12,0,0,0,564,459ZM553.24,560.72c-12.89,0-12.87-20,0-20S566.11,560.72,553.24,560.72Z" transform="translate(-440 -459)"/></svg>