<svg id="Layer_1" data-name="Layer 1" xmlns="http://www.w3.org/2000/svg" xmlns:xlink="http://www.w3.org/1999/xlink" viewBox="0 0 501 381"><defs><style>.cls-1{fill:url(#linear-gradient);}.cls-2{fill:url(#linear-gradient-2);}.cls-3{fill:url(#linear-gradient-3);}.cls-4{fill:url(#linear-gradient-4);}.cls-5{fill:url(#linear-gradient-5);}.cls-6{font-size:250px;fill:#fff;font-family:Calibri;}</style><linearGradient id="linear-gradient" x1="447" y1="208.5" x2="501" y2="208.5" gradientUnits="userSpaceOnUse"><stop offset="0" stop-color="#370f39"/><stop offset="1" stop-color="#691c2b"/></linearGradient><linearGradient id="linear-gradient-2" x1="291" y1="342" x2="349" y2="342" xlink:href="#linear-gradient"/><linearGradient id="linear-gradient-3" x1="116" y1="342" x2="174" y2="342" xlink:href="#linear-gradient"/><linearGradient id="linear-gradient-4" x1="1110.66" y1="443.23" x2="1194.46" y2="443.23" gradientTransform="matrix(0.4, 0.4, -0.46, 0.46, 170.42, -615.06)" xlink:href="#linear-gradient"/><linearGradient id="linear-gradient-5" x1="698" y1="546" x2="1172" y2="546" xlink:href="#linear-gradient"/></defs><title>icon-cheaper</title><rect class="cls-1" x="447" y="181" width="54" height="55"/><rect class="cls-2" x="291" y="303" width="58" height="78"/><rect class="cls-3" x="116" y="303" width="58" height="78"/><polygon class="cls-4" points="443.9 36.48 393.37 53.37 427 87 443.9 36.48"/><path class="cls-5" d="M935,365c-130.89,0-237,81-237,181S804.11,727,935,727s237-81,237-181S1065.89,365,935,365Zm182.4,158.38c-9.81,0-17.08-8-17.5-17.5s8.35-17.5,17.5-17.5c9.81,0,17.08,8,17.5,17.5S1126.55,523.38,1117.4,523.38Z" transform="translate(-698 -365)"/><text class="cls-6" transform="translate(173.56 261.36)">$</text></svg>