<svg id="Text" xmlns="http://www.w3.org/2000/svg" viewBox="0 0 364.94 310"><title>icon-black</title><path d="M738,320c7.2,23.7,5.76,51.5,5.68,75.19-.05,16.8-26.12,16.78-26.07,0,.08-23,4.87-61.73-11-82.66-53.54-11-109.33-14-163.55-9.5a474.35,474.35,0,0,0-49.58,6.36c13.23,24.63,14.92,52.95,14.93,82.05,0,16.8-26.06,16.77-26.07,0,0-26.64-.24-53.72-15.27-75.73-15.59,4.65-30.46,10.95-43.12,19.63V611H788.94V338.66C772.85,330.42,755.4,324.69,738,320ZM636.92,515.32a6,6,0,0,1-4.17,1.47c-8.17-.06-16.32-.51-24.48-.77-3.82.09-7.65.15-11.5.15a6.46,6.46,0,0,1-2.27-.43,6.61,6.61,0,0,1-5.26-8.14c.21-.83.42-1.66.62-2.5a6.57,6.57,0,0,1,.9-2c2.42-7.22,5.84-14.27,8-21.58-17.58-12.64-12.59-47.63,14.9-47.63s32.43,34.82,15,47.54c2,8.12,6.65,15.82,10.32,23.09a6.44,6.44,0,0,1,.65,2.41,7.46,7.46,0,0,1,.29,2.66A6.45,6.45,0,0,1,636.92,515.32Z" transform="translate(-424 -301)"/></svg>