<svg id="Layer_1" data-name="Layer 1" xmlns="http://www.w3.org/2000/svg" xmlns:xlink="http://www.w3.org/1999/xlink" viewBox="0 0 859.47 656.93"><defs><style>.cls-1{fill:url(#linear-gradient);}.cls-2{fill:none;stroke:#691c2b;stroke-miterlimit:10;stroke-width:80px;}</style><linearGradient id="linear-gradient" x1="617.5" y1="342.44" x2="982.79" y2="549.72" gradientUnits="userSpaceOnUse"><stop offset="0" stop-color="#370f39"/><stop offset="1" stop-color="#691c2b"/></linearGradient></defs><title>icon-accessible</title><path class="cls-1" d="M800.35,316A130,130,0,1,1,735.6,333.2,129.9,129.9,0,0,1,800.35,316h0m0-80A210,210,0,0,0,617.5,342.44c-57.24,100.87-21.87,229,79,286.28a209.92,209.92,0,0,0,286.29-79c57.24-100.87,21.86-229-79-286.29A209,209,0,0,0,800.34,236Z" transform="translate(-590.11 -236.04)"/><line class="cls-2" x1="383.98" y1="308.74" x2="839.72" y2="567.34"/><line class="cls-2" x1="800.49" y1="555.43" x2="754.1" y2="637.19"/><line class="cls-2" x1="695.35" y1="485.42" x2="648.96" y2="567.18"/></svg>