<svg id="Layer_1" data-name="Layer 1" xmlns="http://www.w3.org/2000/svg" viewBox="0 0 164 212"><defs><style>.cls-1{fill:#f7a401;}.cls-2{fill:#444;}</style></defs><title>oath</title><rect class="cls-1" x="1" y="1" width="162" height="210" rx="11"/><path class="cls-2" d="M654,235a10,10,0,0,1,10,10V433a10,10,0,0,1-10,10H514a10,10,0,0,1-10-10V245a10,10,0,0,1,10-10H654m0-2H514a12,12,0,0,0-12,12V433a12,12,0,0,0,12,12H654a12,12,0,0,0,12-12V245a12,12,0,0,0-12-12Z" transform="translate(-502 -233)"/></svg>